<svg width="192" height="60" viewBox="0 0 192 60" fill="none" xmlns="http://www.w3.org/2000/svg"><path d="M82.232 56.667l.065-.13.14.07c.119.06.194.05.279-.124l.682-1.4-1.66.817-.044.084c-.085.18-.045.24.07.3l.14.064-.066.13-1.19-.578.065-.13.139.07c.12.055.194.05.279-.125l.852-1.744c.085-.179.045-.239-.07-.299l-.14-.064.066-.13 1.19.578-.064.13-.14-.07c-.12-.06-.19-.05-.279.124l-.678 1.386 1.66-.818.034-.07c.085-.179.045-.239-.07-.298l-.139-.07.065-.13 1.19.578-.064.13-.14-.065c-.119-.06-.189-.05-.278.125l-.853 1.744c-.084.179-.044.239.07.298l.14.07-.065.13-1.186-.583zm3.079 1.34c-.373-.135-.912-.463-.697-1.071a.262.262 0 01.329-.16c.134.05.204.194.159.33a.26.26 0 01-.319.154l-.035-.015c.03.294.26.483.533.578.3.104.623-.07.748-.424.13-.369-.005-.608-.26-.697a2.79 2.79 0 00-.328-.09l.07-.195c.14.075.269.125.309.14.224.08.438-.065.568-.424.12-.338-.005-.573-.24-.657-.269-.095-.583-.035-.936.578l-.14-.05.379-.927.124.045-.01.264c.21-.1.469-.105.753-.005.568.2.792.543.642.962-.104.289-.408.458-.841.388.453.23.612.558.493.897-.155.474-.772.568-1.3.379zm4.221-1.326c.03-.13.005-.169-.095-.194l-.483-.114c-.13-.03-.195.05-.225.189-.164.702-.373 1.255-.597 1.654a.96.96 0 01-.32.369l1.077.254c.1.025.14 0 .17-.13l.473-2.028zm.164 3.224c.04-.618-.11-.752-.339-.807l-1.48-.349c-.239-.055-.433-.025-.682.568l-.145-.035.24-.822.273.065c.284-.045.663-.663.982-2.008.045-.194-.035-.25-.16-.279l-.154-.035.035-.144 2.287.538-.035.144-.154-.035c-.13-.03-.195-.005-.24.185l-.448 1.918c-.04.17.02.22.14.25l.179.039-.15.842-.149-.035zm2.118-1.405l.837.095-.3-1.121-.537 1.026zm.667 1.086l.015-.144.195.02c.094.01.149 0 .154-.075a.363.363 0 00-.025-.145l-.12-.463-.976-.11-.175.344a.406.406 0 00-.06.175c-.01.084.036.15.165.16l.14.014-.015.145-.872-.1.015-.145.05.005c.169.02.288-.08.393-.279l1.146-2.172.274.03.658 2.461c.055.2.134.254.249.264l.05.005-.015.145-1.246-.135zm3.334-2.376c-.12 0-.165.024-.17.234l-.015.847.28.005c.204.005.343-.07.363-.528h.14l-.02 1.215h-.14c0-.463-.14-.538-.344-.543l-.279-.005-.015.942c-.005.2.06.24.19.24l.408.004c.31.005.484.005.643-.867h.145l-.085 1.022-2.282-.04v-.145h.154c.13.005.195-.035.2-.234l.03-1.938c.004-.2-.06-.24-.19-.24h-.154v-.144l2.202.035.045.902h-.145c-.12-.748-.304-.762-.553-.767l-.408.005zm4.424.563c-.199-.718-.334-.817-.568-.792l-.17.02c-.124.014-.159.044-.134.249l.204 1.928c.02.2.09.23.22.214l.154-.015.015.145-1.315.14-.015-.145.154-.015c.13-.015.19-.06.17-.254l-.205-1.929c-.02-.209-.06-.229-.179-.219l-.174.02c-.23.025-.344.155-.394.897l-.144.015-.035-.997 2.401-.254.17.982-.155.01zm2.546 1.305c-.657.145-1.325-.184-1.514-1.06-.185-.848.179-1.526.926-1.69a.91.91 0 01.733.16l.04-.324.129-.03.279 1.026-.144.03c-.319-.712-.708-.782-.952-.732-.384.084-.613.373-.394 1.39.185.857.558 1.1.947 1.016.394-.084.638-.423.628-.951l.144-.03c.065.802-.433 1.11-.822 1.195zm2.885-3.293c-.06-.185-.149-.2-.259-.16l-.189.065c-.264.09-.329.364-.219.678.114.333.333.503.637.398l.324-.11-.294-.871zm.419 2.312l-.045-.14.144-.05c.13-.045.175-.1.11-.289l-.284-.832-.249.085c-.558.19.179 1.28-.693 1.574-.214.07-.388-.025-.543-.418l.14-.045c.099.254.164.304.249.274.199-.065-.219-.882.468-1.306-.503.12-.862-.044-.981-.388-.18-.523.214-.827.837-1.041l1.225-.414.05.14-.144.05c-.125.04-.175.094-.11.288l.623 1.839c.065.19.134.204.259.16l.145-.05.044.139-1.245.423zm5.017-2.143c-.593.324-1.325.195-1.749-.598-.413-.762-.254-1.514.419-1.883a.906.906 0 01.747-.05l-.055-.319.12-.064.558.906-.13.07c-.508-.593-.896-.558-1.116-.438-.343.189-.483.533.01 1.445.419.772.842.901 1.196.712.354-.194.493-.588.339-1.091l.129-.07c.275.753-.119 1.186-.468 1.38zm4.146-3.268c.119.154.194.15.299.064l.294-.229.089.115-1.345 1.041-.09-.114.294-.23c.105-.08.13-.15.01-.303l-.996-1.286c-.1-.13-.155-.154-.215-.105-.015.01-.024.025-.054.05l-.24.27-.089-.115c.508-.603.518-.778.493-.967l.1-.075 1.45 1.884zm1.36-2.258c-.055.254-.055.474.114.648.25.264.578.234.833 0 .239-.23.284-.458.069-.683-.244-.259-.618-.08-1.016.035zm.1-.637c.054-.265.029-.489-.1-.623-.229-.244-.478-.215-.688-.015-.169.16-.249.438-.04.657.205.21.499.105.828-.02zm.159-.06c.339-.12.693-.205.977.094.383.404.204.987-.19 1.36-.423.404-.872.43-1.136.145-.164-.17-.264-.438-.075-.862-.284.06-.563.06-.807-.2-.363-.383-.209-.851.195-1.235.358-.339.752-.373.996-.11.169.175.219.444.04.808zm2.641-1.818c-.289-.25-.583-.31-.768-.1-.189.219-.044.553.225.787.358.309.632.359.822.135.154-.18.179-.424-.279-.822zm.393.921c-.493.568-1.106.399-1.694-.104-.608-.524-.817-1.29-.309-1.879.185-.214.558-.418.822-.19a.28.28 0 01.03.404.287.287 0 01-.398.03c-.09-.074-.11-.204-.055-.328-.14 0-.244.1-.304.169-.284.324-.055.802.568 1.34a.694.694 0 01.13-.692c.403-.469.867-.384 1.161-.135.423.369.408.967.049 1.385zm1.774-3.019c.165.114.229.085.304-.025l.214-.304.12.085-.977 1.395-.119-.085.214-.304c.075-.11.08-.18-.08-.294l-1.33-.931c-.135-.095-.194-.105-.239-.04-.01.015-.015.03-.035.064l-.15.33-.119-.086c.309-.727.269-.896.184-1.066l.07-.1 1.943 1.36z" fill="#fff"/><path d="M69.263 22.85l.269-.1.05-.279C71.877 10.03 82.92.996 95.84.996c6.108 0 11.858 1.978 16.621 5.72l.205.16.249-.075c8.226-2.516 19.701-3.787 34.095-3.787 12.268 0 26.169 1.002 37.19 2.681l.603.09c.125.667 5.401 29.222 5.66 30.618-.588-.13-1.27-.274-1.27-.274-10.807-2.322-27.195-3.762-42.756-3.762-9.461 0-17.927.528-24.479 1.524l-.319.05-.089.309c-3.184 11.31-13.762 19.208-25.715 19.208-5.94 0-11.59-1.904-16.333-5.51l-.24-.18-.273.124c-14.23 6.517-30.175 9.826-47.38 9.826-9.536 0-20.054-1.111-29.925-3.124l-.687-.145V25.964c.458.07.986.145.986.145 12.237 1.788 22.72 2.715 31.54 2.715 13.194.005 24.883-1.953 35.74-5.974zm-.598-.852c-10.678 3.916-22.173 5.83-35.142 5.83-8.77.005-19.203-.917-31.395-2.701L0 24.818v30.454l1.49.308c9.94 2.023 20.523 3.144 30.124 3.144 17.25 0 33.244-3.303 47.544-9.805 4.873 3.617 10.623 5.55 16.681 5.55 12.288 0 23.159-8.052 26.573-19.616 6.462-.967 14.748-1.48 24.025-1.48 15.501 0 31.804 1.43 42.547 3.737l2.735.593-6.064-32.79-1.305-.2c-11.067-1.684-25.028-2.695-37.34-2.695-14.359 0-25.839 1.27-34.145 3.767-4.903-3.777-10.782-5.78-17.03-5.78C82.54 0 71.17 9.238 68.665 21.998z" fill="#fff"/><path d="M155.83 14.31c-.434-.045-.668-.045-1.146-.045v2.486c-.862 0-1.291-.044-2.153-.044V7.24c.718 0 1.291 0 2.058.045l3.009 5.406.768.05-.768-6.553C154.968 6 152.292 6 149.611 6c-.912 0-1.868 0-2.775.05v1.146h1.579v21.809h-1.579v1.146c3.682 0 7.314.045 10.952.239l.862-7.843c-.284 0-.429 0-.718-.045l-3.398 6.602-2.008-.094V18.725a34.52 34.52 0 002.153.044v2.537c.478 0 .717 0 1.195.05l-.044-7.046zM68.41 26.702l1.386-.529V47.6l-1.53.523v1.146c2.965-1.007 4.45-1.53 7.459-2.776v-1.146l-1.819.718v-21.57c.573-.239.957-.383 1.535-.667l3.298 5.211.673-.333-.817-7.51c-4.066 2.009-6.124 2.87-10.184 4.356v1.15zM176.921 11.54l2.491 13.054-4.978-.478 2.487-12.576zm-14.823 18.844c2.914.144 4.399.284 7.319.523v-1.196c-.623 0-1.006-.05-1.579-.095V7.808l.523.05 3.203 5.645.718.05-.767-6.602c-4.639-.434-9.183-.668-11.575-.718l-.767 6.503.717.05 3.204-5.307h.573v21.809c-.673 0-.957-.05-1.579-.095v1.19h.01zm11.669-22.048l2.102.24-4.25 21.33-1.868-.145v1.146l4.878.428V30.19l-1.435-.144.812-3.971 5.785.573.767 4.16-1.335-.144v1.146l7.125.862V31.52l-1.63-.24-4.494-23.482c-2.581-.29-3.876-.429-6.457-.623v1.161zM25.321 43.438c0 6.263-.862 11.091-2.536 11.091S20.3 49.268 20.3 43.15c0-6.313.817-11.046 2.486-11.046 1.674 0 2.536 5.261 2.536 11.335zm4.066.145c0-4.45-1.335-12.676-6.98-12.676-4.978 0-6.219 7.842-6.219 11.859 0 4.449 1.007 12.914 6.936 12.914 5.45 0 6.263-8.032 6.263-12.097zm22.716-6.124c0 3.493-1.196 6.502-2.676 6.741V31.58h.194c1.38 0 2.482 2.486 2.482 5.879zM29.482 32.82h1.53v21.52h-1.575v1.15c2.82 0 4.255 0 7.08-.144V54.2c-.623 0-.862.045-1.485.045v-10.14h.862l2.726 9.946-1.196.095v1.146c4.544-.334 9.133-.768 13.772-1.63v-1.146c-.718.145-1.052.19-1.77.29v-7.46c3.588-.573 6.458-4.304 6.458-8.749 0-3.971-2.342-6.268-5.356-6.268-.334 0-.668.05-1.001.095-2.198.334-3.299.478-5.55.717v1.146l1.484-.19v21.281c-.573.095-.957.145-2.82.334l-2.342-8.849c-.429-1.674-1.575-2.531-2.676-2.775l4.016-9.611 1.435-.145v-1.146c-1.863.19-2.82.24-4.683.334v1.15l1.24-.049-3.921 9.472h-.673v-9.278h1.53V31.62c-1.674.05-2.82.094-4.11.094-.863 0-1.82 0-2.965-.05v1.156h-.01zm113.004-20.757c0 2.775-1.245 5.022-2.82 5.117V7.135c1.674.005 2.82 2.158 2.82 4.928zm0 11.48c0 2.92-1.245 5.306-2.82 5.356V18.381c1.674 0 2.82 2.242 2.82 5.162zm-8.56-16.114l1.58-.095v21.81l-1.58.094v1.146c5.501-.334 12.432.284 12.432-6.886 0-2.965-1.48-4.973-3.682-5.835 1.963-.956 3.298-2.87 3.298-5.645 0-3.921-2.676-6.074-5.979-6.074-2.536 0-3.682.145-6.074.29v1.195h.005zM11.505 47.788c0 2.725-1.151 4.878-2.536 4.878h-.24V42.098c1.53.239 2.726 2.775 2.776 5.69zM2.989 29.906l1.575.288v21.81l-1.575-.29v1.196c2.248.429 3.443.573 5.735.957.384.044.768.094 1.146.094 3.11 0 5.407-1.958 5.407-5.69 0-2.964-1.485-5.117-3.588-6.358 1.913-.622 3.204-2.341 3.204-5.166 0-4.59-2.676-6.313-6.119-6.936L2.99 28.759v1.146zm8.466 6.407c0 2.63-1.101 4.639-2.392 4.639-.094 0-.194 0-.334-.045V30.862c1.53.24 2.726 2.676 2.726 5.451zm116.258-6.168c-1.53 0-2.775-4.689-2.775-11.002 0-6.263 1.435-11.714 3.487-11.714.907 0 1.869.523 2.058 2.058-1.724.812-2.202 2.297-2.202 3.682 0 2.247 1.196 3.632 2.631 3.632 1.485 0 2.581-1.913 2.581-4.065 0-4.45-2.681-6.458-4.928-6.458-6.124 0-7.793 8.944-7.793 13.583 0 4.115 1.485 11.43 6.597 11.43 2.726 0 6.263-3.777 6.263-9.756l-3.871.284c.005 4.977-.952 8.326-2.048 8.326zm-66.044-2.392c-2.77.767-4.16 1.146-6.936 1.769v1.101c.623-.095.957-.19 1.58-.334l2.63 10.618c.29 1.196 1.197 2.68 2.487 2.68.478 0 2.152-.572 2.68-2.58-.572 3.92-.906 5.929-2.585 8.081a.5.5 0 00.094-.289c0-2.008-.672-3.393-1.913-3.393-1.435 0-2.726 1.674-2.726 3.727 0 1.63 1.052 3.064 2.342 3.064 2.68 0 4.495-3.92 5.167-5.884 2.008-6.168 1.819-15.401 2.058-18.989.478-.144.762-.239 1.24-.428l.045-1.146c-1.863.668-2.775.957-4.638 1.53v1.146c.667-.24 1.001-.334 1.674-.523-.05 3.153-.145 5.545-.24 7.364-.194 3.637-.577 4.828-1.245 4.828-.384 0-.717-.528-.957-1.674l-2.052-9.183c.523-.145.762-.19 1.29-.384v-1.101h.005z" fill="#fff"/><path d="M81.66 21.066c.403-.299 1.364-.982 2.864-1.823 2.342-1.316 6.034-2.95 8.81-3.727l.498-.145c.488 1.305 1.39 2.297 2.52 3.034-.97 1.306-4.588 6.567-7.204 11.8-3.333-2.143-6.557-5.81-7.489-9.139zm1.653-11.405c.718-.12 1.52-.23 2.352-.21 4.993.13 7.947 1.446 8.366 1.645a3.93 3.93 0 00-.508 1.54 5.935 5.935 0 00.04 1.664c-.713.199-2.895.837-5.6 1.908-2.786 1.106-5.766 3.05-6.653 3.642-.732-3.04-.503-6.836 2.003-10.189zm2.656 33.204c.459-2.247 1.495-6.01 3.847-10.778 3.722 2.053 8.644 3.329 13.796 2.696.01 0 .025-.005.04-.005v-.742c0-.175-.01-.354-.015-.529-.03.006-6.442 1.246-13.243-2.565 3.273-6.358 6.223-10.678 7.06-11.869.005 0 .01.005.01 0 1.59.752 3.313.967 4.629.782h.01c-.085-.398-.19-.792-.279-1.19-2.845.403-7.519-1.84-7.026-5.98.215-1.808 1.779-3.099 3.857-3.393a16.16 16.16 0 00-.429-.782c-1.44.224-2.7.842-3.552 1.739-.454-.204-3.025-1.306-6.767-1.65-1.435-.129-2.635-.099-3.772.1.14-.154 2.905-2.61 5.86-3.592a19.59 19.59 0 014.021-.882c.2-.005.518-.055.867.204.957.668 1.943 1.664 3.348 4.086.18-.03 2.003-.483 4.694.663 1.823-2.377 3.438-2.806 4.135-2.845.195-.01.12-.1.02-.15a24.294 24.294 0 00-11.126-2.735c-.334 0-7.449-.344-12.76 5.067-.145.15-.26.244-.389.399-3.986.976-5.182 3.014-5.41 3.343l.124.104c1.11-.976 2.76-1.948 4.544-2.456-3.652 5.406-1.67 11.012-1.61 11.23.703 2.517 3.01 6.927 8.142 10.21-.947 1.918-2.706 5.64-3.752 10.922-4.674-2.71-6.622-5.222-7.454-6.328v1.22c1.744 3.384 7.2 6.274 7.26 6.304-.185 2.257.055 3.448.289 4.26.184.154.702.488 1.006.613-.114-.683-.354-2.477-.154-4.275 6.92 3.408 12.426 3.303 15.974 3.034.159-.324.374-.872.478-1.136-.02 0-.035.005-.05.005-4.912.264-10.14-.075-16.223-3.1zm31.978-24.46c-.03-.07-.114-.084-.099.005.239 1.55.418 5.456-2.412 9.831 2.133 5.127 1.774 8.5 1.375 9.92-.02.08.045.16.14-.015.324-.583.797-1.62 1.156-2.645.926-2.641 1.549-5.451 1.549-8.416 0-3.134-.533-6.004-1.709-8.68zm-16.128.26c.015 0 .025 0 .04-.005 2.157-.324 3.886-1.455 4.14-3.503.339-2.74-1.938-5.058-4.993-5.76a7.278 7.278 0 00-2.356-.105c.353.683.702 1.43 1.026 2.272.862 2.227 1.565 4.63 2.143 7.1zm4.554 15.595c-1.575.398-2.706.513-2.721.518 0 6.099-.483 8.78-1.43 11.19a.282.282 0 00.07-.01c5.735-.438 9.87-2.994 11.878-4.802.504-.459 1.52-1.48 1.804-3.035a12.47 12.47 0 00.224-2.262c0-2.202-.498-4.38-1.489-6.597-2.512 3.08-5.955 4.395-8.336 4.998zm7.812-6.094a31.417 31.417 0 00-1.559-2.715c-2.143-3.349-5.735-6.473-6.786-7.355-.902.937-2.188 1.535-3.722 1.754-.01 0-.015.005-.02.005a71.092 71.092 0 011.534 13.652c7.619-1.06 10.289-4.942 10.553-5.34zm-15.37 22.232c-.16.12-.03.165.049.155 5.949-.698 11.126-3.259 14.684-7.623.079-.105.015-.14-.05-.09-5.038 3.911-11.689 4.255-11.754 4.26-.807 1.704-1.993 2.68-2.93 3.298zm5.216-40.647c1.295.802 2.272 1.888 2.775 3.114 5.157-.01 8.949 2.257 10.005 3.238.08.065.15.025.1-.06-1.869-3.826-4.385-6.71-8.396-8.998-.085-.055-.279-.18-.498-.134-.329.064-.972.184-1.644.603-.992.617-2.028 1.828-2.342 2.237zm11.814 6.676c-1.241-.782-2.661-1.4-4.35-1.833-2.108-.538-3.966-.608-4.4-.608.065.473.105 1.036.025 1.53a5.129 5.129 0 01-.548 1.609c1.141.971 6.064 5.341 8.361 10.015 1.968-2.985 2.312-5.974 2.247-8.012-.005-.638-.299-2.048-1.335-2.7z" fill="#fff"/></svg>