<svg width="143" height="60" viewBox="0 0 143 60" fill="none" xmlns="http://www.w3.org/2000/svg"><path d="M10.713 12.761h-2.48l-2.835 4.762-2.919-4.762H0v8.948h2.747v-3.941l1.943 3.136h1.33l1.948-3.276.021 4.081h2.749l-.025-8.948zm5.891 6.711c.28 0 .54-.05.78-.154a1.88 1.88 0 00.64-.434c.187-.197.332-.43.433-.704.102-.28.154-.596.154-.946s-.052-.661-.154-.933a1.88 1.88 0 00-.434-.703 1.764 1.764 0 00-.639-.447 1.97 1.97 0 00-.78-.154c-.283 0-.545.05-.793.154-.24.102-.452.252-.64.447-.178.187-.32.421-.421.703a2.657 2.657 0 00-.154.933c0 .35.052.664.154.946.101.273.242.508.421.704.188.188.4.332.64.434.248.104.512.154.793.154zm0 2.441a5.767 5.767 0 01-2.02-.345 4.813 4.813 0 01-1.6-.971 4.658 4.658 0 01-1.06-1.495 4.661 4.661 0 01-.371-1.867c0-.682.123-1.303.371-1.866a4.475 4.475 0 011.06-1.482 4.698 4.698 0 011.6-.985 5.767 5.767 0 012.02-.344 5.71 5.71 0 012.02.344c.614.23 1.146.558 1.598.985.452.417.8.912 1.049 1.482.255.563.384 1.184.384 1.866 0 .674-.127 1.295-.384 1.867a4.48 4.48 0 01-1.049 1.495 4.813 4.813 0 01-1.598.971 5.696 5.696 0 01-2.02.345zm10.378 0a5.82 5.82 0 01-1.993-.332 4.847 4.847 0 01-1.586-.972 4.443 4.443 0 01-1.036-1.482 4.696 4.696 0 01-.371-1.892c0-.69.123-1.321.371-1.891a4.407 4.407 0 011.036-1.482 4.67 4.67 0 011.586-.96 5.631 5.631 0 011.993-.344c.88 0 1.654.153 2.328.46a4.34 4.34 0 011.688 1.33l-1.906 1.7a2.968 2.968 0 00-.883-.767 2.062 2.062 0 00-1.073-.28c-.316 0-.6.05-.857.154a1.888 1.888 0 00-.665.446 2.12 2.12 0 00-.421.716c-.102.274-.154.58-.154.92 0 .341.052.652.154.933.101.273.243.507.421.703.188.197.41.345.665.448.255.102.54.154.857.154.4 0 .76-.09 1.073-.268.324-.187.618-.446.883-.78l1.905 1.7a4.476 4.476 0 01-1.687 1.329c-.674.303-1.449.457-2.328.457zm10.642-4.358l-2.774-.28 2.57-4.514h3.145l-2.941 4.794zm-3.901.92v-2.377h3.388v2.377h-3.388zm-2.147 3.234v-8.948h3.017v8.948h-3.017zm5.575 0l-2.224-4.193 2.404-1.406 3.222 5.6h-3.402zm8.248-2.237c.28 0 .54-.05.78-.154.247-.102.461-.248.64-.434a2.03 2.03 0 00.434-.704c.102-.28.153-.596.153-.946s-.05-.661-.153-.933a1.902 1.902 0 00-.434-.703 1.763 1.763 0 00-.64-.447 1.97 1.97 0 00-.78-.154c-.28 0-.545.05-.793.154-.24.102-.452.252-.64.447a1.98 1.98 0 00-.421.703 2.657 2.657 0 00-.154.933c0 .35.052.664.154.946.102.273.243.508.421.704.188.188.4.332.64.434.248.104.512.154.793.154zm0 2.441a5.768 5.768 0 01-2.02-.345 4.813 4.813 0 01-1.599-.971 4.656 4.656 0 01-1.06-1.495 4.63 4.63 0 01-.372-1.867c0-.682.123-1.303.371-1.866a4.473 4.473 0 011.061-1.482 4.698 4.698 0 011.599-.985 5.768 5.768 0 012.02-.344 5.71 5.71 0 012.02.344c.614.23 1.146.558 1.598.985.452.417.8.912 1.049 1.482.255.563.384 1.184.384 1.866 0 .674-.127 1.295-.384 1.867a4.478 4.478 0 01-1.049 1.495 4.813 4.813 0 01-1.598.971 5.71 5.71 0 01-2.02.345zm8.844-5.713h1.28c.255 0 .442-.056.562-.167.12-.11.178-.273.178-.486 0-.22-.058-.387-.178-.498-.12-.12-.307-.178-.563-.178h-1.279v1.328zm0 3.4h1.676c.246 0 .43-.059.55-.178.128-.127.191-.308.191-.538 0-.23-.064-.4-.191-.51-.12-.12-.302-.18-.55-.18h-1.675V19.6zm-2.964 2.11v-8.95h4.538c1.107 0 1.965.206 2.57.615.613.409.92.984.92 1.725 0 .723-.28 1.3-.843 1.725-.563.418-1.322.627-2.276.627l.256-.69c1.014 0 1.811.2 2.392.6.578.4.867.983.867 1.75 0 .793-.314 1.423-.944 1.891-.63.47-1.531.704-2.697.704h-4.783v.002zm13.743.203a5.82 5.82 0 01-1.993-.332 4.846 4.846 0 01-1.586-.972 4.442 4.442 0 01-1.036-1.482 4.729 4.729 0 01-.371-1.892c0-.69.123-1.321.371-1.891a4.406 4.406 0 011.036-1.482 4.67 4.67 0 011.586-.96 5.632 5.632 0 011.993-.344c.88 0 1.654.153 2.328.46a4.34 4.34 0 011.688 1.33l-1.906 1.7a2.948 2.948 0 00-.883-.767 2.062 2.062 0 00-1.073-.28c-.314 0-.6.05-.857.154a1.88 1.88 0 00-.665.446 2.12 2.12 0 00-.421.716c-.102.274-.154.58-.154.92 0 .341.052.652.154.933.102.273.243.507.421.703.188.197.41.345.665.448.255.102.54.154.857.154.4 0 .76-.09 1.073-.268.324-.187.618-.446.883-.78l1.905 1.7a4.475 4.475 0 01-1.687 1.329c-.674.303-1.449.457-2.328.457zm10.64-4.358l-2.774-.28 2.57-4.514h3.146l-2.942 4.794zm-3.899.92v-2.377h3.388v2.377h-3.388zm-2.147 3.234v-8.948h3.017v8.948h-3.017zm5.573 0l-2.224-4.193 2.404-1.406 3.222 5.6H75.19zm3.761.001v-8.95h2.965v4.653l3.081-4.653h2.838v8.948H84.87v-4.64l-3.068 4.64h-2.85zm14.654-9.461c-1.015 0-1.735-.188-2.162-.563-.418-.384-.626-.928-.626-1.636h2.007c0 .28.055.49.166.627.12.127.323.191.615.191.298 0 .507-.064.627-.19.12-.137.178-.346.178-.628h2.008c0 .708-.218 1.252-.652 1.636-.427.375-1.147.563-2.161.563zm-4.435 9.46v-8.947h2.966v4.652l3.081-4.652h2.839v8.948h-2.967v-4.64l-3.069 4.64h-2.85zM4.253 33.164l-4.167-7.67h3.183l2.62 5.587-1.636 2.083zm-2.685-1.06c.529.135.941.183 1.24.14.298-.05.562-.234.793-.55l.434-.614.255-.28 2.595-5.305H9.8l-3.592 6.737c-.393.732-.864 1.304-1.418 1.713-.545.4-1.15.63-1.814.69-.665.06-1.369-.058-2.11-.356l.702-2.176zm11.621-.819l-1.342-1.368h2.442c.418 0 .723-.095.92-.28.205-.188.307-.443.307-.768 0-.324-.102-.58-.307-.768-.197-.188-.502-.28-.92-.28h-2.442l1.342-1.369v4.833zm-3.017 3.158v-8.948h4.308c.836 0 1.556.135 2.16.409.614.273 1.087.664 1.417 1.177.333.502.499 1.098.499 1.79 0 .69-.166 1.287-.499 1.789-.332.504-.805.895-1.418 1.177-.605.273-1.325.409-2.16.409h-2.632l1.342-1.291v3.49h-3.017v-.002zm12.011-2.109h1.547c.298 0 .529-.065.691-.192.172-.126.256-.31.256-.55 0-.46-.317-.69-.947-.69h-1.547v1.432zm-2.966 2.109v-8.948h7.758v2.275h-4.792v1.036h2.135c1.09 0 1.925.234 2.505.704.588.46.883 1.129.883 2.007 0 .913-.332 1.627-.997 2.147-.664.52-1.59.78-2.774.78h-4.718v-.001zm10.718-1.559l.766-2.174h4.117l.768 2.174h-5.651zm-2.328 1.559l3.912-8.948h2.965l3.911 8.948h-3.12l-2.888-7.516h1.175l-2.89 7.516h-3.065zm14.171-3.299v-2.48h3.196v2.48h-3.196zm-2.811 3.299v-8.948h3.017v8.948h-3.017zm8.82-8.95v8.948H44.77v-8.948h3.017zm1.336 8.95v-8.948h2.965v4.652l3.08-4.652h2.84v8.948h-2.966v-4.64l-3.069 4.64h-2.85zm14.719.204c-.716 0-1.38-.111-1.995-.333a4.847 4.847 0 01-1.586-.971 4.468 4.468 0 01-1.036-1.483 4.696 4.696 0 01-.372-1.891c0-.691.123-1.322.372-1.892a4.425 4.425 0 011.036-1.482 4.67 4.67 0 011.586-.96 5.634 5.634 0 011.995-.344c.877 0 1.654.154 2.327.46a4.334 4.334 0 011.688 1.33l-1.906 1.7a3.004 3.004 0 00-.882-.768 2.062 2.062 0 00-1.074-.28c-.316 0-.601.051-.857.153a1.88 1.88 0 00-.664.447 2.12 2.12 0 00-.422.716c-.102.273-.154.58-.154.92 0 .34.05.652.154.932.102.273.243.507.422.704.187.196.409.345.664.446.256.102.541.154.857.154.4 0 .76-.09 1.074-.268.323-.188.618-.447.882-.78l1.906 1.7a4.458 4.458 0 01-1.688 1.329c-.675.307-1.45.46-2.327.46zm6.638-.204V27.18l.653.652H67.86v-2.338h8.207v2.338h-3.272l.651-.652v7.262H70.48zm6.327 0v-8.948h2.965v4.652l3.081-4.652h2.838v8.948h-2.965v-4.64l-3.068 4.64h-2.85zm15.196 0v-8.948h2.965v8.948h-2.965zm.397-3.004c-.385.137-.742.24-1.074.307a4.6 4.6 0 01-.947.102c-1.312 0-2.313-.311-3.004-.933-.682-.621-1.023-1.53-1.023-2.723v-2.697h2.966v2.364c0 .545.12.95.358 1.215.24.255.602.384 1.087.384.333 0 .63-.03.895-.09.265-.067.486-.162.665-.28l.077 2.35zm6.86.728h4.474v2.276h-7.44v-8.948h7.272v2.275h-4.308v4.397h.002zm3.785-3.35v2.173h-3.989v-2.173h3.989zm6.158 5.83a5.81 5.81 0 01-1.993-.333 4.842 4.842 0 01-1.586-.971 4.464 4.464 0 01-1.036-1.483 4.735 4.735 0 01-.37-1.891c0-.691.124-1.322.37-1.892a4.446 4.446 0 011.036-1.482c.452-.418.98-.738 1.586-.96a5.626 5.626 0 011.993-.344c.877 0 1.654.154 2.328.46a4.331 4.331 0 011.687 1.33l-1.905 1.7a3.004 3.004 0 00-.883-.768 2.06 2.06 0 00-1.073-.28c-.316 0-.6.051-.857.153a1.88 1.88 0 00-.665.447c-.179.196-.32.434-.421.716-.102.273-.154.58-.154.92 0 .34.052.652.154.932.101.273.242.507.421.704.188.196.409.345.665.446.255.102.541.154.857.154.4 0 .759-.09 1.073-.268.324-.188.618-.447.883-.78l1.905 1.7a4.458 4.458 0 01-1.687 1.329c-.676.307-1.451.46-2.328.46zm10.64-4.36l-2.774-.28 2.57-4.512h3.146l-2.942 4.792zm-3.899.921v-2.377h3.388v2.377h-3.388zm-2.149 3.235v-8.948h3.017v8.948h-3.017zm5.575 0l-2.224-4.194 2.404-1.405 3.222 5.599h-3.402zm3.759 0v-8.948h2.967v4.652l3.081-4.652h2.838v8.948h-2.967v-4.64l-3.066 4.64h-2.853zm14.655-9.461c-1.014 0-1.734-.188-2.161-.563-.418-.384-.627-.928-.627-1.636h2.008c0 .28.055.49.166.627.119.127.323.191.614.191.298 0 .507-.064.627-.19.12-.137.179-.346.179-.628h2.007c0 .707-.218 1.252-.652 1.636-.427.375-1.146.563-2.161.563zm-4.437 9.46v-8.948h2.967v4.653l3.081-4.652h2.838v8.948h-2.967v-4.64l-3.068 4.64h-2.851zM4.658 47.635v-9.856H7.42v9.856H4.66zm1.318-3.272h.282c.692 0 1.245-.056 1.661-.166.418-.12.72-.302.908-.55.187-.256.28-.588.28-.997 0-.41-.098-.732-.293-.972-.196-.246-.503-.426-.92-.537-.409-.111-.94-.166-1.598-.166h-.32c-.734 0-1.321.055-1.764.166-.434.102-.75.277-.945.523-.197.248-.295.579-.295.997 0 .418.11.753.332 1.009.222.248.554.427.997.537.452.104 1.009.156 1.675.156zm-.27 2.3c-1.235 0-2.275-.153-3.118-.46-.836-.308-1.466-.76-1.891-1.356-.427-.597-.64-1.325-.64-2.186s.213-1.586.64-2.174c.425-.596 1.06-1.048 1.904-1.356.843-.307 1.884-.46 3.118-.46h.753c1.219 0 2.237.157 3.057.473.827.307 1.448.759 1.866 1.355.418.588.625 1.308.625 2.16 0 .843-.203 1.563-.612 2.161-.4.597-1.002 1.052-1.802 1.368-.8.316-1.794.473-2.98.473h-.919v.002zm11.69-1.725c.283 0 .542-.052.781-.154a1.83 1.83 0 00.64-.434 2.02 2.02 0 00.433-.703c.102-.28.154-.597.154-.945 0-.35-.05-.661-.154-.934a1.917 1.917 0 00-.433-.704 1.764 1.764 0 00-.64-.447 1.97 1.97 0 00-.78-.153c-.28 0-.545.05-.793.153-.24.102-.452.252-.64.447-.178.187-.32.421-.421.704a2.658 2.658 0 00-.154.934c0 .348.05.664.154.945.101.273.243.507.421.703.188.188.4.332.64.434.248.102.512.154.793.154zm0 2.441a5.823 5.823 0 01-2.02-.344 4.813 4.813 0 01-1.598-.972 4.617 4.617 0 01-1.061-1.495 4.655 4.655 0 01-.372-1.866c0-.683.124-1.304.372-1.867a4.51 4.51 0 011.06-1.482 4.726 4.726 0 011.6-.984 5.768 5.768 0 012.02-.345c.734 0 1.407.114 2.02.345.614.23 1.146.559 1.598.984.452.418.802.913 1.049 1.482a4.47 4.47 0 01.384 1.867 4.52 4.52 0 01-.384 1.866 4.453 4.453 0 01-1.049 1.495 4.813 4.813 0 01-1.598.972 5.697 5.697 0 01-2.02.344zm8.897-3.361l-1.341-1.368h2.441c.418 0 .725-.095.92-.28.204-.188.307-.444.307-.769s-.102-.578-.307-.768c-.196-.187-.502-.28-.92-.28h-2.441l1.341-1.368v4.833zm-3.017 3.156v-8.948h4.308c.836 0 1.556.135 2.162.409.612.273 1.085.664 1.418 1.175.332.503.498 1.1.498 1.79 0 .689-.166 1.287-.498 1.79-.333.501-.806.894-1.418 1.174-.606.274-1.326.41-2.162.41h-2.632l1.341-1.292v3.49h-3.017v.002zm12.246-1.277l-4.167-7.67h3.183l2.62 5.587-1.636 2.083zm-2.685-1.061c.529.136.941.184 1.24.141.298-.052.562-.234.793-.55l.434-.614.255-.283 2.595-5.304h2.915l-3.592 6.737c-.39.732-.864 1.303-1.418 1.713-.544.4-1.15.63-1.814.69-.665.06-1.368-.058-2.11-.356l.702-2.174zm8.603 2.338v-8.948h2.482l3.579 5.842h-1.304l3.477-5.842h2.48l.026 8.948h-2.748l-.027-4.806h.436l-2.378 4.002h-1.33l-2.48-4.002h.537v4.806h-2.75z" fill="#fff"/><path d="M85.643 38.105H55.785v9.1h29.858v-9.1zM31.616 50.9H.05V60h31.566v-9.1zM59.768 0H.05v9.1h59.718V0z" fill="#0080C5"/></svg>