<svg width="649" height="59" viewBox="0 0 649 59" fill="none" xmlns="http://www.w3.org/2000/svg"><path d="M23.864 30.07H.414v-7.21h23.45V9.21H.414V2h30.66v49H.414v-7.21h23.45V30.07zM44.587 51h-7.14V2h32.27v49h-7.21V30.14h-17.92V51zm0-41.79v13.72h17.92V9.21h-17.92zm104.229-7.84v8.19l-36.96 16.87 36.96 16.8v8.26l-38.36-17.36V51h-7.21V2h7.21v16.8l38.36-17.43zm52.336 35.42c-3.99 9.31-13.23 15.82-24.01 15.82-14.49 0-26.18-11.69-26.18-26.18S162.652.25 177.142.25s26.18 11.69 26.18 26.18c0 .84-.07 1.68-.14 2.45h-44.66c.49 4.13 2.38 7.91 5.32 10.85 3.57 3.57 8.26 5.53 13.3 5.53 5.04 0 9.73-1.96 13.3-5.53 1.05-1.12 2.03-2.31 2.8-3.57l7.91.63zM177.142 7.6c-5.04 0-9.73 1.96-13.3 5.53-2.38 2.38-4.06 5.39-4.9 8.54h36.4c-.84-3.15-2.52-6.16-4.9-8.54-3.57-3.57-8.26-5.53-13.3-5.53zm46.94 43.4l-4.9-42.56h-4.2V51h-7.42V2h18.41l4.55 42.28h4.06L239.132 2h18.41v49h-7.7l.14-42.42h-4.13L240.812 51h-16.73zm72.401-41.72v11.76h28.49V51h-35.7V2h35.7v7.28h-28.49zm0 18.97v15.47h21.21V28.25h-21.21zm34.741 5.39V2h7.21v24.5h18.55V2h7.21v31.64h-12.88V51h-7.21V33.64h-12.88zm39.317 10.01V2h32.55v41.65h9.17v7.21h-50.89v-7.21h9.17zm7.21-34.51v34.51h18.2V9.14h-18.2zm33.796 24.5V2h7.21v24.5h18.55V2h7.21v31.64h-12.88V51h-7.21V33.64h-12.88zM451.537 2h7.21v41.79h10.57V2h7.21v41.79h10.64V2h7.21v41.79h9.31v15.19h-7.21V51h-44.94V2zm100.641 34.79c-3.99 9.31-13.23 15.82-24.01 15.82-14.49 0-26.18-11.69-26.18-26.18S513.678.25 528.168.25s26.18 11.69 26.18 26.18c0 .84-.07 1.68-.14 2.45h-44.66c.49 4.13 2.38 7.91 5.32 10.85 3.57 3.57 8.26 5.53 13.3 5.53 5.04 0 9.73-1.96 13.3-5.53 1.05-1.12 2.03-2.31 2.8-3.57l7.91.63zM528.168 7.6c-5.04 0-9.73 1.96-13.3 5.53-2.38 2.38-4.06 5.39-4.9 8.54h36.4c-.84-3.15-2.52-6.16-4.9-8.54-3.57-3.57-8.26-5.53-13.3-5.53zm80.68 29.19c-3.99 9.31-13.23 15.82-24.01 15.82-14.49 0-26.18-11.69-26.18-26.18S570.348.25 584.838.25s26.18 11.69 26.18 26.18c0 .84-.07 1.68-.14 2.45h-44.66c.49 4.13 2.38 7.91 5.32 10.85 3.57 3.57 8.26 5.53 13.3 5.53 5.04 0 9.73-1.96 13.3-5.53 1.05-1.12 2.03-2.31 2.8-3.57l7.91.63zM584.838 7.6c-5.04 0-9.73 1.96-13.3 5.53-2.38 2.38-4.06 5.39-4.9 8.54h36.4c-.84-3.15-2.52-6.16-4.9-8.54-3.57-3.57-8.26-5.53-13.3-5.53zm63.619 10.36c0 4.76-1.89 9.17-5.25 12.53-2.45 2.52-5.6 4.13-9.03 4.83v6.65h-7V27.76c1.05.49 2.31.63 3.57.63 5.74 0 10.43-4.69 10.43-10.43 0-5.74-4.69-10.43-10.43-10.43-3.99 0-7.42 2.24-9.17 5.46l-7-2.24c.84-1.96 2.1-3.78 3.64-5.32 3.36-3.29 7.77-5.18 12.53-5.18 4.69 0 9.17 1.89 12.46 5.18 3.36 3.36 5.25 7.84 5.25 12.53zm-13.79 31.5c0-2.24-1.68-4.06-3.92-4.06-2.17 0-3.99 1.82-3.99 4.06 0 2.1 1.82 3.92 3.99 3.92 2.24 0 3.92-1.82 3.92-3.92z" fill="url(#paint0_linear_34_78)"/><defs><linearGradient id="paint0_linear_34_78" x1="-32.959" y1="17.224" x2="680.974" y2="49.039" gradientUnits="userSpaceOnUse"><stop stop-color="#56C0E5"/><stop offset=".495" stop-color="#B977E6"/><stop offset="1" stop-color="#E55C5E"/></linearGradient></defs></svg>