<svg width="747" height="59" viewBox="0 0 747 59" fill="none" xmlns="http://www.w3.org/2000/svg"><path d="M23.75 30.07h.7v-.7h-.7v.7zm-23.45 0h-.7v.7h.7v-.7zm0-7.21v-.7h-.7v.7h.7zm23.45 0v.7h.7v-.7h-.7zm0-13.65h.7v-.7h-.7v.7zM.3 9.21h-.7v.7h.7v-.7zM.3 2v-.7h-.7V2h.7zm30.66 0h.7v-.7h-.7V2zm0 49v.7h.7V51h-.7zM.3 51h-.7v.7h.7V51zm0-7.21v-.7h-.7v.7h.7zm23.45 0v.7h.7v-.7h-.7zm0-14.42H.3v1.4h23.45v-1.4zM1 30.07v-7.21H-.4v7.21H1zm-.7-6.51h23.45v-1.4H.3v1.4zm24.15-.7V9.21h-1.4v13.65h1.4zm-.7-14.35H.3v1.4h23.45v-1.4zM1 9.21V2H-.4v7.21H1zM.3 2.7h30.66V1.3H.3v1.4zM30.26 2v49h1.4V2h-1.4zm.7 48.3H.3v1.4h30.66v-1.4zM1 51v-7.21H-.4V51H1zm-.7-6.51h23.45v-1.4H.3v1.4zm24.15-.7V30.07h-1.4v13.72h1.4zM51.473 51v.7h.7V51h-.7zm-7.14 0h-.7v.7h.7V51zm0-49v-.7h-.7V2h.7zm32.27 0h.7v-.7h-.7V2zm0 49v.7h.7V51h-.7zm-7.21 0h-.7v.7h.7V51zm0-20.86h.7v-.7h-.7v.7zm-17.92 0v-.7h-.7v.7h.7zm0-20.93v-.7h-.7v.7h.7zm0 13.72h-.7v.7h.7v-.7zm17.92 0v.7h.7v-.7h-.7zm0-13.72h.7v-.7h-.7v.7zM51.473 50.3h-7.14v1.4h7.14v-1.4zm-6.44.7V2h-1.4v49h1.4zm-.7-48.3h32.27V1.3h-32.27v1.4zm31.57-.7v49h1.4V2h-1.4zm.7 48.3h-7.21v1.4h7.21v-1.4zm-6.51.7V30.14h-1.4V51h1.4zm-.7-21.56h-17.92v1.4h17.92v-1.4zm-18.62.7V51h1.4V30.14h-1.4zm0-20.93v13.72h1.4V9.21h-1.4zm.7 14.42h17.92v-1.4h-17.92v1.4zm18.62-.7V9.21h-1.4v13.72h1.4zm-.7-14.42h-17.92v1.4h17.92v-1.4zm100.309-7.14h.7V.283l-.99.45.29.637zm0 8.19l.29.637.41-.187v-.45h-.7zm-36.96 16.87l-.291-.637-1.398.638 1.399.636.29-.637zm36.96 16.8h.7v-.45l-.411-.187-.289.637zm0 8.26l-.289.638.989.447V51.49h-.7zm-38.36-17.36l.288-.638-.988-.447v1.085h.7zm0 16.87v.7h.7V51h-.7zm-7.21 0h-.7v.7h.7V51zm0-49v-.7h-.7V2h.7zm7.21 0h.7v-.7h-.7V2zm0 16.8h-.7v1.087l.989-.45-.289-.637zm37.66-17.43v8.19h1.4V1.37h-1.4zm.409 7.553l-36.96 16.87.581 1.274 36.96-16.87-.581-1.274zm-36.959 18.144l36.96 16.8.579-1.274-36.96-16.8-.579 1.274zm36.55 16.163v8.26h1.4v-8.26h-1.4zm.988 7.622l-38.36-17.36-.577 1.276 38.36 17.36.577-1.276zM130.642 34.13V51h1.4V34.13h-1.4zm.7 16.17h-7.21v1.4h7.21v-1.4zm-6.51.7V2h-1.4v49h1.4zm-.7-48.3h7.21V1.3h-7.21v1.4zm6.51-.7v16.8h1.4V2h-1.4zm.989 17.437l38.36-17.43-.579-1.274-38.36 17.43.579 1.274zm97.407 17.353l.644.276.384-.896-.972-.078-.056.698zm2.03-7.91v.7h.639l.058-.637-.697-.063zm-44.66 0v-.7h-.788l.093.782.695-.082zm5.32 10.85l.495-.495-.495.495zm26.6 0l.495.495.008-.008.008-.008-.511-.479zm2.8-3.57l.056-.698-.429-.034-.224.367.597.365zm-29.4-23.03l.495.495-.495-.495zm-4.9 8.54l-.676-.18-.235.88h.911v-.7zm36.4 0v.7h.911l-.235-.88-.676.18zm-4.9-8.54l-.495.495.495-.495zm10.067 23.384c-3.884 9.062-12.876 15.396-23.367 15.396v1.4c11.07 0 20.557-6.686 24.654-16.244l-1.287-.552zM205.028 51.91c-14.103 0-25.48-11.377-25.48-25.48h-1.4c0 14.877 12.004 26.88 26.88 26.88v-1.4zm-25.48-25.48c0-14.103 11.377-25.48 25.48-25.48v-1.4c-14.876 0-26.88 12.003-26.88 26.88h1.4zM205.028.95c14.104 0 25.48 11.377 25.48 25.48h1.4c0-14.877-12.003-26.88-26.88-26.88v1.4zm25.48 25.48c0 .805-.067 1.617-.137 2.387l1.394.126c.07-.77.143-1.638.143-2.513h-1.4zm.56 1.75h-44.66v1.4h44.66v-1.4zm-45.355.782c.509 4.293 2.473 8.216 5.52 11.263l.99-.99c-2.833-2.833-4.649-6.47-5.12-10.438l-1.39.165zm5.52 11.263c3.7 3.7 8.568 5.735 13.795 5.735v-1.4c-4.852 0-9.365-1.885-12.805-5.325l-.99.99zm13.795 5.735c5.228 0 10.095-2.035 13.795-5.735l-.99-.99c-3.44 3.44-7.952 5.325-12.805 5.325v1.4zm13.811-5.751c1.068-1.14 2.083-2.369 2.886-3.684l-1.194-.73c-.736 1.205-1.682 2.356-2.714 3.456l1.022.958zm2.234-3.351l7.91.63.111-1.396-7.91-.63-.111 1.396zM205.028 6.9c-5.227 0-10.095 2.035-13.795 5.735l.99.99c3.44-3.44 7.953-5.325 12.805-5.325V6.9zm-13.795 5.735c-2.47 2.47-4.211 5.59-5.081 8.855l1.352.36c.81-3.036 2.43-5.936 4.719-8.225l-.99-.99zm-4.405 9.735h36.4v-1.4h-36.4v1.4zm37.076-.88c-.87-3.264-2.61-6.384-5.081-8.855l-.99.99c2.29 2.29 3.909 5.19 4.719 8.225l1.352-.36zm-5.081-8.855c-3.7-3.7-8.567-5.735-13.795-5.735v1.4c4.853 0 9.365 1.885 12.805 5.325l.99-.99zM258.968 51l-.695.08.071.62h.624V51zm-4.9-42.56l.695-.08-.071-.62h-.624v.7zm-4.2 0v-.7h-.7v.7h.7zm0 42.56v.7h.7V51h-.7zm-7.42 0h-.7v.7h.7V51zm0-49v-.7h-.7V2h.7zm18.41 0l.696-.075-.067-.625h-.629V2zm4.55 42.28l-.696.075.067.625h.629v-.7zm4.06 0v.7h.629l.067-.625-.696-.075zM274.018 2v-.7h-.629l-.067.625.696.075zm18.41 0h.7v-.7h-.7V2zm0 49v.7h.7V51h-.7zm-7.7 0l-.7-.002-.002.702h.702V51zm.14-42.42l.7.002.002-.702h-.702v.7zm-4.13 0v-.7h-.622l-.073.617.695.083zM275.698 51v.7h.622l.073-.617-.695-.083zm-16.035-.08l-4.9-42.56-1.39.16 4.9 42.56 1.39-.16zm-5.595-43.18h-4.2v1.4h4.2v-1.4zm-4.9.7V51h1.4V8.44h-1.4zm.7 41.86h-7.42v1.4h7.42v-1.4zm-6.72.7V2h-1.4v49h1.4zm-.7-48.3h18.41V1.3h-18.41v1.4zm17.714-.625l4.55 42.28 1.392-.15-4.55-42.28-1.392.15zm5.246 42.905h4.06v-1.4h-4.06v1.4zm4.756-.625l4.55-42.28-1.392-.15-4.55 42.28 1.392.15zM274.018 2.7h18.41V1.3h-18.41v1.4zm17.71-.7v49h1.4V2h-1.4zm.7 48.3h-7.7v1.4h7.7v-1.4zm-7 .702l.14-42.42-1.4-.004-.14 42.42 1.4.004zm-.56-43.122h-4.13v1.4h4.13v-1.4zm-4.825.617l-5.04 42.42 1.39.166 5.04-42.42-1.39-.166zM275.698 50.3h-16.73v1.4h16.73v-1.4zm69.671-41.02v-.7h-.7v.7h.7zm0 11.76h-.7v.7h.7v-.7zm28.49 0h.7v-.7h-.7v.7zm0 29.96v.7h.7V51h-.7zm-35.7 0h-.7v.7h.7V51zm0-49v-.7h-.7V2h.7zm35.7 0h.7v-.7h-.7V2zm0 7.28v.7h.7v-.7h-.7zm-28.49 18.97v-.7h-.7v.7h.7zm0 15.47h-.7v.7h.7v-.7zm21.21 0v.7h.7v-.7h-.7zm0-15.47h.7v-.7h-.7v.7zm-21.91-18.97v11.76h1.4V9.28h-1.4zm.7 12.46h28.49v-1.4h-28.49v1.4zm27.79-.7V51h1.4V21.04h-1.4zm.7 29.26h-35.7v1.4h35.7v-1.4zm-35 .7V2h-1.4v49h1.4zm-.7-48.3h35.7V1.3h-35.7v1.4zm35-.7v7.28h1.4V2h-1.4zm.7 6.58h-28.49v1.4h28.49v-1.4zm-29.19 19.67v15.47h1.4V28.25h-1.4zm.7 16.17h21.21v-1.4h-21.21v1.4zm21.91-.7V28.25h-1.4v15.47h1.4zm-.7-16.17h-21.21v1.4h21.21v-1.4zm20.531 6.09h-.7v.7h.7v-.7zm0-31.64v-.7h-.7V2h.7zm7.21 0h.7v-.7h-.7V2zm0 24.5h-.7v.7h.7v-.7zm18.55 0v.7h.7v-.7h-.7zm0-24.5v-.7h-.7V2h.7zm7.21 0h.7v-.7h-.7V2zm0 31.64v.7h.7v-.7h-.7zm-12.88 0v-.7h-.7v.7h.7zm0 17.36v.7h.7V51h-.7zm-7.21 0h-.7v.7h.7V51zm0-17.36h.7v-.7h-.7v.7zm-12.18 0V2h-1.4v31.64h1.4zm-.7-30.94h7.21V1.3h-7.21v1.4zm6.51-.7v24.5h1.4V2h-1.4zm.7 25.2h18.55v-1.4h-18.55v1.4zm19.25-.7V2h-1.4v24.5h1.4zm-.7-23.8h7.21V1.3h-7.21v1.4zm6.51-.7v31.64h1.4V2h-1.4zm.7 30.94H407.2v1.4h12.88v-1.4zm-13.58.7V51h1.4V33.64h-1.4zm.7 16.66h-7.21v1.4h7.21v-1.4zm-6.51.7V33.64h-1.4V51h1.4zm-.7-18.06h-12.88v1.4h12.88v-1.4zm33.437 10.71v.7h.7v-.7h-.7zm0-41.65v-.7h-.7V2h.7zm32.55 0h.7v-.7h-.7V2zm0 41.65h-.7v.7h.7v-.7zm9.17 0h.7v-.7h-.7v.7zm0 7.21v.7h.7v-.7h-.7zm-50.89 0h-.7v.7h.7v-.7zm0-7.21v-.7h-.7v.7h.7zm16.38-34.51v-.7h-.7v.7h.7zm0 34.51h-.7v.7h.7v-.7zm18.2 0v.7h.7v-.7h-.7zm0-34.51h.7v-.7h-.7v.7zm-24.71 34.51V2h-1.4v41.65h1.4zm-.7-40.95h32.55V1.3h-32.55v1.4zm31.85-.7v41.65h1.4V2h-1.4zm.7 42.35h9.17v-1.4h-9.17v1.4zm8.47-.7v7.21h1.4v-7.21h-1.4zm.7 6.51h-50.89v1.4h50.89v-1.4zm-50.19.7v-7.21h-1.4v7.21h1.4zm-.7-6.51h9.17v-1.4h-9.17v1.4zm15.68-35.21v34.51h1.4V9.14h-1.4zm.7 35.21h18.2v-1.4h-18.2v1.4zm18.9-.7V9.14h-1.4v34.51h1.4zm-.7-35.21h-18.2v1.4h18.2v-1.4zm22.595 25.2h-.7v.7h.7v-.7zm0-31.64v-.7h-.7V2h.7zm7.21 0h.7v-.7h-.7V2zm0 24.5h-.7v.7h.7v-.7zm18.55 0v.7h.7v-.7h-.7zm0-24.5v-.7h-.7V2h.7zm7.21 0h.7v-.7h-.7V2zm0 31.64v.7h.7v-.7h-.7zm-12.88 0v-.7h-.7v.7h.7zm0 17.36v.7h.7V51h-.7zm-7.21 0h-.7v.7h.7V51zm0-17.36h.7v-.7h-.7v.7zm-12.18 0V2h-1.4v31.64h1.4zm-.7-30.94h7.21V1.3h-7.21v1.4zm6.51-.7v24.5h1.4V2h-1.4zm.7 25.2h18.55v-1.4h-18.55v1.4zm19.25-.7V2h-1.4v24.5h1.4zm-.7-23.8h7.21V1.3h-7.21v1.4zm6.51-.7v31.64h1.4V2h-1.4zm.7 30.94h-12.88v1.4h12.88v-1.4zm-13.58.7V51h1.4V33.64h-1.4zm.7 16.66h-7.21v1.4h7.21v-1.4zm-6.51.7V33.64h-1.4V51h1.4zm-.7-18.06h-12.88v1.4h12.88v-1.4zM528.423 2v-.7h-.7V2h.7zm7.21 0h.7v-.7h-.7V2zm0 41.79h-.7v.7h.7v-.7zm10.57 0v.7h.7v-.7h-.7zm0-41.79v-.7h-.7V2h.7zm7.21 0h.7v-.7h-.7V2zm0 41.79h-.7v.7h.7v-.7zm10.64 0v.7h.7v-.7h-.7zm0-41.79v-.7h-.7V2h.7zm7.21 0h.7v-.7h-.7V2zm0 41.79h-.7v.7h.7v-.7zm9.31 0h.7v-.7h-.7v.7zm0 15.19v.7h.7v-.7h-.7zm-7.21 0h-.7v.7h.7v-.7zm0-7.98h.7v-.7h-.7v.7zm-44.94 0h-.7v.7h.7V51zm0-48.3h7.21V1.3h-7.21v1.4zm6.51-.7v41.79h1.4V2h-1.4zm.7 42.49h10.57v-1.4h-10.57v1.4zm11.27-.7V2h-1.4v41.79h1.4zm-.7-41.09h7.21V1.3h-7.21v1.4zm6.51-.7v41.79h1.4V2h-1.4zm.7 42.49h10.64v-1.4h-10.64v1.4zm11.34-.7V2h-1.4v41.79h1.4zm-.7-41.09h7.21V1.3h-7.21v1.4zm6.51-.7v41.79h1.4V2h-1.4zm.7 42.49h9.31v-1.4h-9.31v1.4zm8.61-.7v15.19h1.4V43.79h-1.4zm.7 14.49h-7.21v1.4h7.21v-1.4zm-6.51.7V51h-1.4v7.98h1.4zm-.7-8.68h-44.94v1.4h44.94v-1.4zm-44.24.7V2h-1.4v49h1.4zm106.941-14.21l.643.276.384-.896-.972-.078-.055.698zm2.03-7.91v.7h.639l.058-.637-.697-.063zm-44.66 0v-.7h-.788l.092.782.696-.082zm5.32 10.85l.494-.495-.494.495zm26.6 0l.494.495.008-.008.008-.008-.51-.479zm2.8-3.57l.055-.698-.429-.034-.224.367.598.365zm-29.4-23.03l.494.495-.494-.495zm-4.9 8.54l-.677-.18-.235.88h.912v-.7zm36.4 0v.7h.911l-.235-.88-.676.18zm-4.9-8.54l-.495.495.495-.495zm10.066 23.384c-3.883 9.062-12.876 15.396-23.366 15.396v1.4c11.069 0 20.556-6.686 24.653-16.244l-1.287-.552zM612.054 51.91c-14.104 0-25.48-11.377-25.48-25.48h-1.4c0 14.877 12.003 26.88 26.88 26.88v-1.4zm-25.48-25.48c0-14.103 11.376-25.48 25.48-25.48v-1.4c-14.877 0-26.88 12.003-26.88 26.88h1.4zM612.054.95c14.103 0 25.48 11.377 25.48 25.48h1.4c0-14.877-12.004-26.88-26.88-26.88v1.4zm25.48 25.48c0 .805-.068 1.617-.138 2.387l1.395.126c.07-.77.143-1.638.143-2.513h-1.4zm.56 1.75h-44.66v1.4h44.66v-1.4zm-45.356.782c.51 4.293 2.474 8.216 5.521 11.263l.989-.99c-2.833-2.833-4.649-6.47-5.119-10.438l-1.391.165zm5.521 11.263c3.7 3.7 8.567 5.735 13.795 5.735v-1.4c-4.853 0-9.365-1.885-12.806-5.325l-.989.99zm13.795 5.735c5.227 0 10.095-2.035 13.794-5.735l-.989-.99c-3.44 3.44-7.953 5.325-12.805 5.325v1.4zm13.81-5.751c1.069-1.14 2.083-2.369 2.887-3.684l-1.195-.73c-.736 1.205-1.682 2.356-2.713 3.456l1.021.958zm2.234-3.351l7.91.63.111-1.396-7.91-.63-.111 1.396zM612.054 6.9c-5.228 0-10.095 2.035-13.795 5.735l.989.99c3.441-3.44 7.953-5.325 12.806-5.325V6.9zm-13.795 5.735c-2.471 2.47-4.211 5.59-5.082 8.855l1.353.36c.809-3.036 2.429-5.936 4.718-8.225l-.989-.99zm-4.405 9.735h36.4v-1.4h-36.4v1.4zm37.076-.88c-.871-3.264-2.611-6.384-5.082-8.855l-.989.99c2.289 2.29 3.909 5.19 4.718 8.225l1.353-.36zm-5.082-8.855c-3.699-3.7-8.567-5.735-13.794-5.735v1.4c4.852 0 9.365 1.885 12.805 5.325l.989-.99zm73.885 24.155l.644.276.384-.896-.972-.078-.056.698zm2.03-7.91v.7h.64l.058-.637-.698-.063zm-44.66 0v-.7h-.788l.093.782.695-.082zm5.32 10.85l.495-.495-.495.495zm26.6 0l.495.495.008-.008.008-.008-.511-.479zm2.8-3.57l.056-.698-.429-.034-.224.367.597.365zm-29.4-23.03l.495.495-.495-.495zm-4.9 8.54l-.676-.18-.235.88h.911v-.7zm36.4 0v.7h.912l-.235-.88-.677.18zm-4.9-8.54l-.495.495.495-.495zm10.067 23.384c-3.883 9.062-12.876 15.396-23.367 15.396v1.4c11.07 0 20.557-6.686 24.654-16.244l-1.287-.552zM675.723 51.91c-14.103 0-25.48-11.377-25.48-25.48h-1.4c0 14.877 12.004 26.88 26.88 26.88v-1.4zm-25.48-25.48c0-14.103 11.377-25.48 25.48-25.48v-1.4c-14.876 0-26.88 12.003-26.88 26.88h1.4zM675.723.95c14.104 0 25.48 11.377 25.48 25.48h1.4c0-14.877-12.003-26.88-26.88-26.88v1.4zm25.48 25.48c0 .805-.067 1.617-.137 2.387l1.395.126c.07-.77.142-1.638.142-2.513h-1.4zm.56 1.75h-44.66v1.4h44.66v-1.4zm-45.355.782c.51 4.293 2.474 8.216 5.52 11.263l.99-.99c-2.833-2.833-4.649-6.47-5.119-10.438l-1.391.165zm5.52 11.263c3.7 3.7 8.568 5.735 13.795 5.735v-1.4c-4.852 0-9.365-1.885-12.805-5.325l-.99.99zm13.795 5.735c5.228 0 10.095-2.035 13.795-5.735l-.99-.99c-3.44 3.44-7.952 5.325-12.805 5.325v1.4zm13.811-5.751c1.068-1.14 2.083-2.369 2.887-3.684l-1.195-.73c-.736 1.205-1.682 2.356-2.713 3.456l1.021.958zm2.234-3.351l7.91.63.111-1.396-7.91-.63-.111 1.396zM675.723 6.9c-5.227 0-10.095 2.035-13.795 5.735l.99.99c3.44-3.44 7.953-5.325 12.805-5.325V6.9zm-13.795 5.735c-2.47 2.47-4.21 5.59-5.081 8.855l1.353.36c.809-3.036 2.429-5.936 4.718-8.225l-.99-.99zm-4.405 9.735h36.4v-1.4h-36.4v1.4zm37.077-.88c-.871-3.264-2.611-6.384-5.082-8.855l-.99.99c2.29 2.29 3.91 5.19 4.719 8.225l1.353-.36zm-5.082-8.855c-3.7-3.7-8.567-5.735-13.795-5.735v1.4c4.853 0 9.365 1.885 12.805 5.325l.99-.99zm51.575 17.855l-.496-.495-.006.007.502.488zm-9.03 4.83l-.14-.686-.56.114v.572h.7zm0 6.65v.7h.7v-.7h-.7zm-7 0h-.7v.7h.7v-.7zm0-14.21l.296-.634-.996-.465v1.099h.7zm-5.6-14.77l-.214.667.552.176.277-.509-.615-.334zm-7-2.24l-.644-.276-.303.708.733.235.214-.667zm3.64-5.32l-.49-.5-.005.005.495.495zm24.99 0l-.495.495.495-.495zm4.55 12.53c0 4.568-1.812 8.802-5.045 12.035l.989.99c3.487-3.487 5.456-8.073 5.456-13.025h-1.4zm-5.052 12.042c-2.343 2.41-5.363 3.957-8.668 4.632l.279 1.372c3.555-.725 6.835-2.398 9.392-5.028l-1.003-.976zm-9.228 5.318v6.65h1.4v-6.65h-1.4zm.7 5.95h-7v1.4h7v-1.4zm-6.3.7V27.76h-1.4v14.21h1.4zm-.997-13.576c1.188.555 2.57.696 3.867.696v-1.4c-1.224 0-2.362-.139-3.274-.564l-.593 1.268zm3.867.696c6.126 0 11.13-5.003 11.13-11.13h-1.4c0 5.353-4.377 9.73-9.73 9.73v1.4zm11.13-11.13c0-6.127-5.004-11.13-11.13-11.13v1.4c5.353 0 9.73 4.377 9.73 9.73h1.4zm-11.13-11.13c-4.26 0-7.919 2.392-9.786 5.826l1.231.668a9.732 9.732 0 018.555-5.094v-1.4zm-8.957 5.493l-7-2.24-.427 1.334 7 2.24.427-1.334zm-6.57-1.297c.802-1.873 2.01-3.62 3.491-5.101l-.989-.99c-1.599 1.599-2.911 3.492-3.789 5.54l1.287.55zm3.486-5.096c3.235-3.167 7.472-4.98 12.041-4.98v-1.4c-4.952 0-9.535 1.967-13.02 5.38l.979 1zM728.633.95c4.501 0 8.804 1.814 11.965 4.975l.989-.99A18.344 18.344 0 00728.633-.45v1.4zm11.965 4.975c3.232 3.232 5.045 7.535 5.045 12.035h1.4c0-4.88-1.968-9.537-5.456-13.025l-.989.99zm-7.345 43.535c0-2.594-1.962-4.76-4.62-4.76v1.4c1.821 0 3.22 1.474 3.22 3.36h1.4zm-4.62-4.76c-2.565 0-4.69 2.141-4.69 4.76h1.4c0-1.861 1.514-3.36 3.29-3.36v-1.4zm-4.69 4.76c0 2.495 2.141 4.62 4.69 4.62v-1.4c-1.792 0-3.29-1.515-3.29-3.22h-1.4zm4.69 4.62c2.642 0 4.62-2.15 4.62-4.62h-1.4c0 1.73-1.383 3.22-3.22 3.22v1.4z" fill="#fff"/></svg>