<svg width="62" height="62" viewBox="0 0 62 62" fill="none" xmlns="http://www.w3.org/2000/svg"><path d="M11.4 1H1v11.304m60 0V1H50.6m0 60H61V49.696m-60 0V61h10.4" stroke="#fff"/><path d="M42.913 24.016c.17-.586 0-1.016-.809-1.016h-2.678c-.682 0-.993.372-1.164.78 0 0-1.362 3.427-3.292 5.649-.623.646-.907.85-1.247.85-.17 0-.416-.204-.416-.79v-5.473c0-.703-.197-1.016-.765-1.016h-4.209c-.425 0-.681.325-.681.635 0 .666.965.82 1.064 2.695v4.068c0 .89-.155 1.053-.497 1.053-.908 0-3.116-3.439-4.427-7.376-.255-.765-.512-1.074-1.196-1.074h-2.678c-.765 0-.918.372-.918.78 0 .734.907 4.364 4.227 9.164C25.44 36.223 28.556 38 31.394 38c1.701 0 1.912-.395 1.912-1.075v-2.478c0-.789.162-.948.7-.948.396 0 1.078.207 2.667 1.786C38.488 37.158 38.788 38 39.808 38h2.677c.765 0 1.147-.395.927-1.174-.24-.775-1.108-1.903-2.258-3.237-.626-.761-1.56-1.58-1.844-1.99-.397-.528-.282-.761 0-1.23 0 0 3.263-4.74 3.602-6.352z" fill="#fff"/><defs><linearGradient id="paint0_linear_33_152" x1=".573" y1="5.793" x2="11.913" y2="5.847" gradientUnits="userSpaceOnUse"><stop stop-color="#56C0E5"/><stop offset=".495" stop-color="#B977E6"/><stop offset="1" stop-color="#E55C5E"/></linearGradient><linearGradient id="paint1_linear_33_152" x1="56.59" y1=".535" x2="56.521" y2="12.862" gradientUnits="userSpaceOnUse"><stop stop-color="#56C0E5"/><stop offset=".495" stop-color="#B977E6"/><stop offset="1" stop-color="#E55C5E"/></linearGradient><linearGradient id="paint2_linear_33_152" x1="61.427" y1="56.207" x2="50.087" y2="56.153" gradientUnits="userSpaceOnUse"><stop stop-color="#56C0E5"/><stop offset=".495" stop-color="#B977E6"/><stop offset="1" stop-color="#E55C5E"/></linearGradient><linearGradient id="paint3_linear_33_152" x1="5.41" y1="61.465" x2="5.479" y2="49.138" gradientUnits="userSpaceOnUse"><stop stop-color="#56C0E5"/><stop offset=".495" stop-color="#B977E6"/><stop offset="1" stop-color="#E55C5E"/></linearGradient><linearGradient id="paint4_linear_33_152" x1="28.817" y1="28.72" x2="33.664" y2="28.724" gradientUnits="userSpaceOnUse"><stop stop-color="#56C0E5"/><stop offset=".495" stop-color="#B977E6"/><stop offset="1" stop-color="#E55C5E"/></linearGradient></defs></svg>