<svg width="62" height="62" viewBox="0 0 62 62" fill="none" xmlns="http://www.w3.org/2000/svg"><path d="M11.4 1H1v11.304m60 0V1H50.6m0 60H61V49.696m-60 0V61h10.4" stroke="#fff"/><path d="M30.522 36.737l-.676.733-.147.16c-.088.097-.166.183-.243.261l-.003.004h0l-1.521 1.535a2008.9 2008.9 0 01-3.563 3.593h0c-.305.306-.467.587-.483.931v.002c-.027.543.315 1.122.89 1.405.265.13.51.163.732.125.223-.039.46-.157.698-.393h0a253.119 253.119 0 003.95-3.993h0a2.14 2.14 0 01.293-.262.907.907 0 01.441-.173c.384-.035.668.212.861.415h0c.846.891 1.71 1.757 2.58 2.628.43.431.862.864 1.294 1.301.291.294.564.451.886.474.541.037 1.144-.322 1.418-.91.23-.493.156-1.005-.287-1.458l-7.12-6.378zm0 0l-.992-.103m.992.103l-.992-.103m0 0c-2.26-.237-4.238-.792-5.917-2.114l-.31.392.31-.392-.145-.114a5.96 5.96 0 01-.468-.39v-.002m6.53 2.62L23 34.014m0 0c-.328-.316-.47-.616-.495-.891-.026-.275.056-.599.317-.973h0M23 34.014l-.178-1.864m0 0v-.001m0 0h0m0 0c.199-.287.449-.45.72-.512.275-.062.613-.029.99.151h0m-1.71.36l1.71-.36m0 0l.004.002m-.004-.002l.004.002m0 0c.14.065.282.154.438.261 3.489 2.413 8.278 2.483 11.787.107l.013-.009m-12.238-.36l12.238.36m0 0l.012-.01m-.012.01l.012-.01m0 0c.3-.232.593-.398.913-.481.587-.151 1.103.056 1.413.566h0m-2.326-.084l2.326.085m0 0c.208.34.287.638.277.887-.01.24-.105.478-.328.707l-.001.001m.052-1.595l-.052 1.595m0 0c-.864.895-1.91 1.548-3.086 2.007h0m3.086-2.007l-3.086 2.007m0 0c-1.107.432-2.336.655-3.583.804l-.961.115m4.544-.92l-4.544.92m0 0l.65.718m-.65-.718l.65.718m0 0l.092.1c.13.145.217.24.323.348h0m-.415-.448l.415.448m0 0l1.857 1.875m-1.857-1.875l1.857 1.875m0 0c1.099 1.108 2.197 2.216 3.29 3.328l-3.29-3.328zm.778-16.203a4.185 4.185 0 00-4.184-4.207l4.184 4.207zm0 0a4.177 4.177 0 01-4.162 4.227 4.185 4.185 0 01-4.216-4.175 4.19 4.19 0 014.194-4.259l4.184 4.207zm-4.243 7.101c-3.84-.014-6.999-3.223-6.978-7.107h0c.023-3.93 3.184-7.088 7.065-7.078 3.883.01 7.015 3.211 6.997 7.189-.021 3.87-3.196 7.01-7.084 6.996z" fill="#fff" stroke="#fff"/></svg>