<svg width="62" height="62" viewBox="0 0 62 62" fill="none" xmlns="http://www.w3.org/2000/svg"><path d="M11.4 1H1v11.304m60 0V1H50.6m0 60H61V49.696m-60 0V61h10.4" stroke="#fff"/><path fill-rule="evenodd" clip-rule="evenodd" d="M39.82 21.137a1.722 1.722 0 011.746.238 1.747 1.747 0 01.637 1.656l-2.621 16.024c-.254 1.546-1.937 2.432-3.343 1.663-1.176-.645-2.924-1.637-4.495-2.673-.786-.518-3.193-2.178-2.897-3.359.254-1.01 4.298-4.805 6.61-7.061.907-.887.493-1.398-.578-.582-2.662 2.024-6.931 5.103-8.344 5.97-1.245.763-1.895.894-2.671.763-1.417-.237-2.73-.605-3.803-1.054-1.45-.605-1.379-2.614-.002-3.198l19.761-8.387z" fill="#fff"/><defs><linearGradient id="paint0_linear_33_152" x1=".573" y1="5.793" x2="11.913" y2="5.847" gradientUnits="userSpaceOnUse"><stop stop-color="#56C0E5"/><stop offset=".495" stop-color="#B977E6"/><stop offset="1" stop-color="#E55C5E"/></linearGradient><linearGradient id="paint1_linear_33_152" x1="56.59" y1=".535" x2="56.521" y2="12.862" gradientUnits="userSpaceOnUse"><stop stop-color="#56C0E5"/><stop offset=".495" stop-color="#B977E6"/><stop offset="1" stop-color="#E55C5E"/></linearGradient><linearGradient id="paint2_linear_33_152" x1="61.427" y1="56.207" x2="50.087" y2="56.153" gradientUnits="userSpaceOnUse"><stop stop-color="#56C0E5"/><stop offset=".495" stop-color="#B977E6"/><stop offset="1" stop-color="#E55C5E"/></linearGradient><linearGradient id="paint3_linear_33_152" x1="5.41" y1="61.465" x2="5.479" y2="49.138" gradientUnits="userSpaceOnUse"><stop stop-color="#56C0E5"/><stop offset=".495" stop-color="#B977E6"/><stop offset="1" stop-color="#E55C5E"/></linearGradient><linearGradient id="paint4_linear_33_152" x1="28.817" y1="28.72" x2="33.664" y2="28.724" gradientUnits="userSpaceOnUse"><stop stop-color="#56C0E5"/><stop offset=".495" stop-color="#B977E6"/><stop offset="1" stop-color="#E55C5E"/></linearGradient><linearGradient id="paint5_linear_33_152" x1="28.817" y1="28.72" x2="33.664" y2="28.724" gradientUnits="userSpaceOnUse"><stop stop-color="#56C0E5"/><stop offset=".495" stop-color="#B977E6"/><stop offset="1" stop-color="#E55C5E"/></linearGradient></defs></svg>