<svg width="43" height="43" viewBox="0 0 43 43" fill="none" xmlns="http://www.w3.org/2000/svg"><g filter="url(#filter0_dd_74_26)"><path fill-rule="evenodd" clip-rule="evenodd" d="M21.5 32C28.956 32 35 25.956 35 18.5S28.956 5 21.5 5 8 11.044 8 18.5 14.044 32 21.5 32z" fill="#fff"/></g><g clip-path="url(#clip0_74_26)" fill-rule="evenodd" clip-rule="evenodd"><path d="M27.956 15.12a3.568 3.568 0 00-.109-.62 3.471 3.471 0 00-.22-.593l-.01-.016a3.58 3.58 0 00-.163-.297 3.694 3.694 0 00-.698-.812l-.01-.005a3.206 3.206 0 00-.276-.214 4.082 4.082 0 00-.305-.192 4.719 4.719 0 00-.329-.16 3.521 3.521 0 00-.652-.214 3.803 3.803 0 00-.951-.094l-.039.002h-.014l-.006-.012-.018-.031a1.695 1.695 0 00-.7-.658 1.981 1.981 0 00-.517-.175 1.93 1.93 0 00-.628-.009v.002c-.07.01-.14.025-.207.044a1.593 1.593 0 00-.54.281l-.004.003a1.36 1.36 0 00-.21.22 1.407 1.407 0 00-.249.57c-.023.11-.032.223-.032.338v10.88c0 .089.01.175.032.258.022.087.055.17.096.252a1.568 1.568 0 00.385.47 2.58 2.58 0 00.535.347c.104.05.211.094.32.131.11.04.223.073.335.098h.002c.12.028.243.05.368.063a3.137 3.137 0 00.74 0 2.752 2.752 0 00.8-.218 2.501 2.501 0 00.755-.526c.106-.11.204-.232.293-.364l.017-.025.006-.01h.012l.03-.004a2.966 2.966 0 00.612-.107 3.085 3.085 0 001.152-.609 3.26 3.26 0 00.25-.235 3.68 3.68 0 00.218-.264c.068-.091.13-.186.184-.284a2.767 2.767 0 00.337-.951v-.002a2.82 2.82 0 00.032-.59 2.664 2.664 0 00-.095-.588l-.008-.031-.004-.012.009-.009.021-.023a1.718 1.718 0 00.195-.254l.006-.01a1.601 1.601 0 00.145-.275v-.001l.001-.002.03-.071c.009-.024.018-.047.026-.073.01-.025.015-.05.023-.074l.02-.075v-.002l.01-.035-.003-.002.004-.018.01-.05a.917.917 0 00.017-.117.81.81 0 00.01-.12c.004-.042.004-.082.004-.123l-.006-.125a1.797 1.797 0 00-.16-.616 2.036 2.036 0 00-.258-.42 1.934 1.934 0 00-.091-.106l-.099-.1-.04-.037-.015-.014.014-.015.034-.043a1.248 1.248 0 00.13-.178 1.157 1.157 0 00.1-.192l.006-.017a1.341 1.341 0 00.09-.336 1.432 1.432 0 00.007-.362l-.002-.007a1.931 1.931 0 00-.033-.181 1.315 1.315 0 00-.139-.34 1.136 1.136 0 00-.091-.144l-.011-.015a1.693 1.693 0 00-.2-.219 1.713 1.713 0 00-.24-.176l-.015-.01-.023-.032-.002-.02v.001zm-4.063 1.207a2.71 2.71 0 00.07-.571l.001-.1v-.036l.034.018.091.049a2.819 2.819 0 01.402.253 1.498 1.498 0 01.32.363l.006.008.002.003a.196.196 0 00.162.068c.017 0 .032-.005.047-.009a.221.221 0 00.045-.018c.016-.009.028-.02.04-.03a.17.17 0 00.052-.115.22.22 0 00-.02-.094v-.002l-.001-.002v-.002a1.852 1.852 0 00-.122-.168 1.932 1.932 0 00-.441-.409l-.019-.013a2.086 2.086 0 00-.595-.275l-.034-.011-.014-.003-.002-.014-.009-.034a3.01 3.01 0 00-.018-.08l-.022-.081c-.008-.029-.015-.055-.025-.082l-.023-.075h-.002a2.66 2.66 0 00-.513-.898 2.838 2.838 0 00-.822-.653l-.003-.003a.259.259 0 00-.111-.018.17.17 0 00-.093.034.304.304 0 00-.032.029.134.134 0 00-.025.037.132.132 0 00-.015.041.14.14 0 00-.006.043.16.16 0 00.023.09.2.2 0 00.073.07l.003.002.004.004a2.498 2.498 0 01.705.56 2.325 2.325 0 01.445.777 2.301 2.301 0 01.05 1.32c-.037.143-.09.284-.155.42l-.003.003v.002a.144.144 0 00-.006.093.17.17 0 00.054.088c.011.009.024.02.036.025.012.01.026.015.04.021.014.006.026.01.04.013a.196.196 0 00.042.006.151.151 0 00.09-.024.16.16 0 00.061-.07l.002-.002v-.003a2.622 2.622 0 00.191-.544v-.001zm-1.455 6.524c-.005.01-.008.02-.011.029l-.008.03v.028c.002.009.003.017.006.025v.001a.183.183 0 00.103.113.28.28 0 00.037.014.309.309 0 00.04.007.116.116 0 00.04-.001.159.159 0 00.038-.006.192.192 0 00.108-.083v-.018l.006-.007.008-.008a.8.8 0 01.233-.296v-.002a.867.867 0 01.265-.14.698.698 0 01.097-.024.71.71 0 01.202-.014.816.816 0 01.199.036h.001c.033.008.064.022.095.035.03.014.06.028.089.046.03.017.055.036.083.055.025.02.05.043.073.065.021.02.044.03.067.036a.18.18 0 00.083-.003.152.152 0 00.043-.02.31.31 0 00.036-.02l.008-.006a.265.265 0 00.034-.036.153.153 0 00.026-.038.158.158 0 00.019-.085.172.172 0 00-.031-.08l-.002-.004-.003-.002v-.002h-.002a1.309 1.309 0 00-.233-.18.993.993 0 00-.132-.067.893.893 0 00-.139-.052l-.008-.003c-.044-.014-.092-.023-.139-.032a1.329 1.329 0 00-.445.003 1.063 1.063 0 00-.145.038 1.101 1.101 0 00-.27.122 1.333 1.333 0 00-.325.293.762.762 0 00-.055.082.389.389 0 00-.033.052h.003l-.017.032-.045.086v.002zm4.195-4.963a.147.147 0 00-.023-.018c-.01-.004-.017-.009-.028-.012a.157.157 0 00-.026-.007h-.033a.219.219 0 00-.075.02.194.194 0 00-.064.051c-.009.01-.015.021-.021.03-.006.012-.013.023-.016.035a.12.12 0 00-.009.036c-.001.012-.003.024-.001.037 0 .024.008.047.02.071.011.02.028.04.051.06h.001l.005.004h.002v.001a.91.91 0 01.072.058.715.715 0 01.067.068.638.638 0 01.061.08.98.98 0 01.05.084v.002h.002c.013.03.027.06.036.092a.772.772 0 01.042.19.632.632 0 010 .097v.02l-.01.076a1.053 1.053 0 01-.024.097c-.011.03-.022.062-.037.091a.643.643 0 01-.048.086l-.01.018a.762.762 0 01-.276.252l-.005.003a.14.14 0 00-.048.05.165.165 0 00-.008.123c.005.015.01.03.018.047a.38.38 0 00.026.04.289.289 0 00.034.034.203.203 0 00.082.037.21.21 0 00.092-.009l.003-.003.002-.001a1 1 0 00.125-.08c.04-.029.077-.061.114-.094a1.098 1.098 0 00.183-.224h.001a1.76 1.76 0 00.07-.128.948.948 0 00.086-.274.952.952 0 00.017-.141v-.001a1.11 1.11 0 00-.188-.682 1.167 1.167 0 00-.087-.116 1.292 1.292 0 00-.217-.192v-.002l-.007-.005v-.001zm-1.989-4.744a.156.156 0 00-.075.024.161.161 0 00-.059.072.196.196 0 00-.012.042.322.322 0 00-.003.043c0 .016.003.03.006.046.002.013.007.026.012.04.014.033.037.06.07.08a.211.211 0 00.11.024h.005a.952.952 0 01.199.01c.033.004.066.014.099.022a.46.46 0 01.07.024l.024.009a.758.758 0 01.174.1.747.747 0 01.145.136v.003a.81.81 0 01.138.259c.01.03.018.06.022.091v.002l.002.002a.724.724 0 01-.034.377l-.002.002v.005a.143.143 0 00-.003.072.172.172 0 00.077.098c.014.01.03.018.045.024a.167.167 0 00.048.015.193.193 0 00.048.004c.03 0 .06-.008.088-.024a.174.174 0 00.062-.064l.001-.004v-.002a.988.988 0 00.062-.278.997.997 0 00-.01-.28v-.008a1.124 1.124 0 00-.087-.276 1.098 1.098 0 00-.25-.355 1.112 1.112 0 00-.37-.24v-.001a1.465 1.465 0 00-.282-.08.987.987 0 00-.148-.015.989.989 0 00-.131 0v.002h-.021l-.019.001v-.002zm-2.377 5.184c-.125.076-.244.16-.353.253a2.169 2.169 0 00-.458.517l-.002-.246V12.48c0-.084.008-.17.023-.253a1.087 1.087 0 01.183-.43 1.03 1.03 0 01.158-.166l.011-.007.005-.006h.002a1.76 1.76 0 01.101-.073 1.181 1.181 0 01.283-.12.988.988 0 01.133-.031l.021-.003c.054-.009.108-.015.162-.018a1.474 1.474 0 01.493.064l.022.008c.06.017.119.04.174.066.063.03.124.064.182.1a1.431 1.431 0 01.302.273l.045.057.017.022-.023.012-.07.032a1.26 1.26 0 00-.25.16c-.024.022-.049.044-.072.068a1.203 1.203 0 00-.296.486v.001l-.001.006h-.002a.146.146 0 00-.01.09c.009.03.027.057.05.078a.252.252 0 00.168.06.182.182 0 00.102-.035.182.182 0 00.063-.09l.003-.008a.664.664 0 01.131-.255.651.651 0 01.139-.136.67.67 0 01.162-.097.68.68 0 01.088-.035h.002l.015-.003h.002l.083-.008.021-.002a3.346 3.346 0 01.98.063c.098.02.197.047.294.078v-.001l.021.007a3.447 3.447 0 01.596.256c.095.053.186.111.276.172a3.267 3.267 0 01.698.664 2.857 2.857 0 01.333.538 2.97 2.97 0 01.215.584c.017.065.03.132.042.197l.015.089.006.034-.034-.009-.092-.022-.03-.008-.032-.005-.032-.004-.03-.003h-.001l-.003-.001a1.374 1.374 0 00-.403.022c-.045.01-.088.023-.13.037l-.007.002c-.04.014-.079.031-.117.049l-.12.063a1.15 1.15 0 00-.107.077 1.77 1.77 0 00-.101.088 1.403 1.403 0 00-.164.209.809.809 0 00-.062.115.803.803 0 00-.049.123l-.002.002v.003a.22.22 0 00.01.091.162.162 0 00.044.071.164.164 0 00.04.029.192.192 0 00.095.026.329.329 0 00.049-.004.177.177 0 00.076-.035.206.206 0 00.055-.067l.002-.002.003-.006a.579.579 0 01.071-.154.8.8 0 01.179-.2c.025-.019.05-.035.074-.052a1.02 1.02 0 01.079-.043l.085-.034.023-.007a.799.799 0 01.279-.03c.112.008.228.035.337.079.12.046.232.108.332.18a1.1 1.1 0 01.458.751v.003a.936.936 0 01-.004.271.997.997 0 01-.072.265l-.002.003c-.012.028-.026.056-.04.085-.017.028-.032.055-.049.081a.87.87 0 01-.117.148l-.032.034-.011.013-.017-.007-.042-.023a2.866 2.866 0 00-1.002-.295 2.747 2.747 0 00-.349-.012 2.7 2.7 0 00-.975.201 2.683 2.683 0 00-.83.53h-.001l-.002.004a.156.156 0 00-.051.075.155.155 0 00.002.092c.004.013.01.025.017.038.008.012.015.024.026.036a.286.286 0 00.068.053c.031.014.067.02.104.017a.218.218 0 00.101-.042h.002l.003-.004h.002a2.227 2.227 0 01.865-.513 2.371 2.371 0 011.144-.083c.045.008.088.015.13.026.042.009.085.02.126.032.043.012.085.026.127.039v.002a2.363 2.363 0 01.374.169 2.26 2.26 0 01.34.234h.001l.005.004v.002a1.327 1.327 0 01.13.148c.02.024.036.05.053.074.014.021.027.04.037.06l.013.019c.03.049.055.1.08.152a1.643 1.643 0 01.105.327c.009.051.017.102.021.152l.002.02a1.214 1.214 0 01-.007.315 1.386 1.386 0 01-.067.293h.002l-.008.02-.002.005-.012.036-.005.015h-.003a1.44 1.44 0 01-.154.293 1.04 1.04 0 01-.062.085l-.014.017a1.877 1.877 0 01-.242.248 1.829 1.829 0 01-.287.192l-.002.002-.023.011h-.001a1.71 1.71 0 01-.883.19c-.1-.004-.2-.02-.299-.043h-.003a1.18 1.18 0 00-.073-.02c-.025-.007-.05-.013-.076-.022a.23.23 0 00-.113-.009.162.162 0 00-.088.043.222.222 0 00-.027.032.172.172 0 00-.02.038.186.186 0 00-.013.081.172.172 0 00.04.097.22.22 0 00.094.07l.003.001h.001v.002l.063.02c.02.005.042.01.062.017l.065.014c.02.006.043.009.066.015h.002l.035.005.013.002.027.006.028.004h.002l.03.003h.002l.037.005h.004l.036.004c.03.001.059.004.085.004.028.003.056.003.08.003h.08c.027 0 .053-.001.08-.003l.014-.001h.002l.01-.002h.004l.023-.001h.003l.011-.003a2.082 2.082 0 00.612-.15c.065-.026.13-.056.191-.089h.003l.027-.016c.008-.003.017-.009.026-.014a.205.205 0 01.028-.016l.026-.017.08-.049.031-.017.005.034.012.09c.01.063.017.126.023.19a1.927 1.927 0 01-.003.38c-.003.053-.01.108-.018.163h.001l-.004.022a2.33 2.33 0 01-.162.565 2.796 2.796 0 01-.13.265 2.386 2.386 0 01-.162.247l-.001.002a2.82 2.82 0 01-.409.437 2.343 2.343 0 01-.24.179 2.377 2.377 0 01-.258.152c-.061.032-.124.06-.188.088-.063.027-.128.05-.192.073a2.776 2.776 0 01-.392.097l-.09.015-.034.006.007-.033.02-.085a2.543 2.543 0 00.052-.372 1.97 1.97 0 00-.006-.377 2.415 2.415 0 00-.14-.613 2.381 2.381 0 00-.131-.29 2.334 2.334 0 00-.158-.26l-.009-.013a2.92 2.92 0 00-.148-.191 3.022 3.022 0 00-.347-.334 2.53 2.53 0 00-.196-.14l-.003-.003-.017-.017-.003-.004a2.07 2.07 0 01-.054-.088 1.283 1.283 0 01-.045-.091 1.46 1.46 0 01-.036-.095.728.728 0 01-.024-.098l-.002-.006a1.245 1.245 0 01-.018-.102 1.268 1.268 0 01-.007-.111c0-.039 0-.076.005-.114.003-.039.009-.076.015-.114l.002-.002a1.248 1.248 0 01.07-.218.864.864 0 01.055-.1.908.908 0 01.06-.095h.003a.963.963 0 01.154-.173.984.984 0 01.184-.136h.002l.004-.003a.26.26 0 00.042-.047.174.174 0 00.02-.054.175.175 0 00.005-.06.143.143 0 00-.015-.057.15.15 0 00-.03-.05c-.008-.008-.015-.017-.025-.024a.184.184 0 00-.027-.02l-.003-.001c-.013-.006-.025-.012-.04-.017a.174.174 0 00-.09 0 .168.168 0 00-.043.015l-.003.002-.005.002a1.818 1.818 0 00-.247.183 1.25 1.25 0 00-.108.11 1.352 1.352 0 00-.095.116l-.008.011a1.522 1.522 0 00-.199.397c-.015.047-.03.098-.04.149-.007.043-.015.084-.02.124a1.265 1.265 0 00.005.383l.014.093.004.034-.034-.01-.094-.029a2.663 2.663 0 00-.64-.108c-.072-.003-.144-.004-.216-.003l-.005.002-.005.002a.25.25 0 00-.112.035.187.187 0 00-.07.076.332.332 0 00-.012.038c-.003.014-.004.028-.003.042 0 .014.003.028.006.041a.187.187 0 00.09.108.28.28 0 00.108.029h.021a2.273 2.273 0 011.049.22l.02.009a2.213 2.213 0 01.832.704l.013.018a2.083 2.083 0 01.346 1.487 1.948 1.948 0 01-.14.488v.001l-.004.011-.001.002a2.25 2.25 0 01-.255.327 2.03 2.03 0 01-.654.47 2.18 2.18 0 01-.37.128l-.023.008a2.582 2.582 0 01-.945.055 3.118 3.118 0 01-.325-.055 2.79 2.79 0 01-.565-.197 2.186 2.186 0 01-.46-.295h-.002a1.544 1.544 0 01-.162-.164 1.197 1.197 0 01-.12-.173.825.825 0 01-.076-.184.654.654 0 01-.026-.182v-3.05c0-.08 0-.148.003-.21a1.074 1.074 0 01.07-.342 2.01 2.01 0 01.083-.182l.009-.02a2.238 2.238 0 011.069-1.022c.15-.072.313-.125.48-.162l.002-.002h.002l.006-.003a.257.257 0 00.058-.028.187.187 0 00.065-.08.147.147 0 00.01-.045.117.117 0 000-.04.113.113 0 00-.009-.042.24.24 0 00-.017-.04c-.008-.012-.015-.024-.024-.035a.164.164 0 00-.08-.05.16.16 0 00-.095 0h-.004a2.68 2.68 0 00-.42.13 2.611 2.611 0 00-.396.193l-.003-.003z" fill="url(#paint0_linear_74_26)"/><path d="M20.254 14.678c-.953 0-1.818.373-2.443.973A3.25 3.25 0 0016.799 18c0 .917.387 1.748 1.012 2.348a3.52 3.52 0 002.443.973c.07-.003.136.03.17.086a.169.169 0 010 .185.188.188 0 01-.17.086 3.891 3.891 0 01-2.706-1.078 3.597 3.597 0 01-1.12-2.6c0-1.015.428-1.935 1.12-2.6a3.896 3.896 0 012.706-1.078.19.19 0 01.17.086.169.169 0 010 .185.187.187 0 01-.17.085z" fill="url(#paint1_linear_74_26)"/><path d="M20.254 24.97h-.69a.328.328 0 01-.232-.092.307.307 0 01-.095-.22v-1.08a5.974 5.974 0 01-1.004-.258l-.561.935a.332.332 0 01-.446.114l-1.198-.665a.315.315 0 01-.151-.19.302.302 0 01.032-.237l.562-.934a5.417 5.417 0 01-.384-.339 5.396 5.396 0 01-.352-.369l-.973.54a.332.332 0 01-.245.032.32.32 0 01-.197-.146l-.694-1.152v-.002a.299.299 0 01-.031-.237.305.305 0 01.15-.188h.001l.972-.54a5.282 5.282 0 01-.269-.963h-1.122a.34.34 0 01-.232-.092l.002-.002a.302.302 0 01-.098-.22v-1.33c0-.087.037-.165.096-.221h.001a.332.332 0 01.23-.092h1.122a5.285 5.285 0 01.268-.964l-.971-.54h-.002a.308.308 0 01-.15-.19.298.298 0 01.031-.238l.694-1.151a.332.332 0 01.443-.114h.002l.971.539a5.876 5.876 0 01.736-.707l-.561-.934a.306.306 0 01.119-.425l1.199-.667a.327.327 0 01.247-.03c.08.02.152.07.197.144v.002l.561.933a5.975 5.975 0 011.004-.26v-1.078a.31.31 0 01.096-.222.34.34 0 01.231-.092h1.19c.102 0 .186.082.186.18a.182.182 0 01-.186.177h-1.147v1.34l-.157.022a5.894 5.894 0 00-1.23.316l-.149.056-.08-.134-.616-1.027-1.122.624.618 1.028.08.134-.125.094a5.113 5.113 0 00-.477.408 5.066 5.066 0 00-.424.457l-.098.12-.14-.077-1.069-.594-.648 1.08 1.067.592.139.075-.057.144a4.7 4.7 0 00-.2.58 5.468 5.468 0 00-.13.602l-.023.151h-1.393v1.245h1.394l.023.152c.033.205.076.405.13.6.055.203.121.396.2.581l.057.144-.14.076-1.066.594.648 1.078 1.07-.594.139-.077.098.12a5.487 5.487 0 00.9.865l.126.095-.08.134-.618 1.026 1.122.624.616-1.027.08-.133.148.056c.195.074.395.138.605.193.205.052.413.093.626.123l.157.022v1.341h1.147c.102 0 .185.08.185.178a.182.182 0 01-.185.178h-.5z" fill="url(#paint2_linear_74_26)"/><path d="M19.717 20.573a2.76 2.76 0 01-1.371-.715A2.56 2.56 0 0117.544 18c0-.726.305-1.383.802-1.858a2.769 2.769 0 011.48-.735.194.194 0 01.153.056.172.172 0 01.041.175.184.184 0 01-.137.123c-.495.08-.935.307-1.275.633A2.22 2.22 0 0017.914 18c0 .627.265 1.195.694 1.606.324.313.741.533 1.21.624.091.034.14.128.111.219a.188.188 0 01-.213.124z" fill="url(#paint3_linear_74_26)"/></g><defs><linearGradient id="paint0_linear_74_26" x1="20.743" y1="16.935" x2="29.392" y2="16.961" gradientUnits="userSpaceOnUse"><stop stop-color="#56C0E5"/><stop offset=".495" stop-color="#B977E6"/><stop offset="1" stop-color="#E55C5E"/></linearGradient><linearGradient id="paint1_linear_74_26" x1="16.262" y1="17.441" x2="20.651" y2="17.454" gradientUnits="userSpaceOnUse"><stop stop-color="#56C0E5"/><stop offset=".495" stop-color="#B977E6"/><stop offset="1" stop-color="#E55C5E"/></linearGradient><linearGradient id="paint2_linear_74_26" x1="12.673" y1="16.94" x2="21.331" y2="16.965" gradientUnits="userSpaceOnUse"><stop stop-color="#56C0E5"/><stop offset=".495" stop-color="#B977E6"/><stop offset="1" stop-color="#E55C5E"/></linearGradient><linearGradient id="paint3_linear_74_26" x1="17.442" y1="17.598" x2="20.152" y2="17.605" gradientUnits="userSpaceOnUse"><stop stop-color="#56C0E5"/><stop offset=".495" stop-color="#B977E6"/><stop offset="1" stop-color="#E55C5E"/></linearGradient><clipPath id="clip0_74_26"><path fill="#fff" transform="translate(13 11)" d="M0 0h16v14H0z"/></clipPath><filter id="filter0_dd_74_26" x="0" y="0" width="43" height="43" filterUnits="userSpaceOnUse" color-interpolation-filters="sRGB"><feFlood flood-opacity="0" result="BackgroundImageFix"/><feColorMatrix in="SourceAlpha" values="0 0 0 0 0 0 0 0 0 0 0 0 0 0 0 0 0 0 127 0" result="hardAlpha"/><feOffset dy="3"/><feGaussianBlur stdDeviation=".5"/><feColorMatrix values="0 0 0 0 0 0 0 0 0 0 0 0 0 0 0 0 0 0 0.06 0"/><feBlend in2="BackgroundImageFix" result="effect1_dropShadow_74_26"/><feColorMatrix in="SourceAlpha" values="0 0 0 0 0 0 0 0 0 0 0 0 0 0 0 0 0 0 127 0" result="hardAlpha"/><feOffset dy="3"/><feGaussianBlur stdDeviation="4"/><feColorMatrix values="0 0 0 0 0 0 0 0 0 0 0 0 0 0 0 0 0 0 0.15 0"/><feBlend in2="effect1_dropShadow_74_26" result="effect2_dropShadow_74_26"/><feBlend in="SourceGraphic" in2="effect2_dropShadow_74_26" result="shape"/></filter></defs></svg>