<svg width="1521" height="261" viewBox="0 0 1521 261" fill="none" xmlns="http://www.w3.org/2000/svg"><path d="M1440 250H82m1270-10H169m1094-10H257m926-9H337m758-10H425m878 48l-307-57m90 57l-186-57m-31 57l-62-57m-94 0l-61 57m-32-57l-185 58" stroke="#737373" stroke-width=".25"/><path d="M1 259l504-57m1015 57l-504-57" stroke="#737373" stroke-width=".5"/><path d="M1440 11H82m1270 10H169m1094 10H257m926 9H337m758 10H425m878-48L996 59m90-57L900 59M869 2l-62 57m-94 0L652 2m-32 57L435 1" stroke="#737373" stroke-width=".25"/><path d="M1 2l504 57M1520 2l-504 57" stroke="#737373" stroke-width=".5"/></svg>